<svg width="181" height="24" viewBox="0 0 181 24" fill="none" xmlns="http://www.w3.org/2000/svg">
<path d="M18.3066 5.6416H12.0957L9.09277 23H4.06836L7.08594 5.6416H0.977539L1.68066 1.67188H18.9951L18.3066 5.6416ZM27.7695 11.6182C27.252 11.54 26.7539 11.4912 26.2754 11.4717C24.8301 11.4326 23.7266 11.9307 22.9648 12.9658L21.1777 23H16.3584L19.1123 7.15039L23.6094 7.13574L23.2432 9.21582C24.2783 7.61426 25.499 6.81348 26.9053 6.81348C27.3057 6.81348 27.8037 6.88184 28.3994 7.01855L27.7695 11.6182ZM36.0166 23C35.8799 22.6191 35.8115 22.1406 35.8115 21.5645C34.7275 22.7559 33.4336 23.332 31.9297 23.293C30.5527 23.2734 29.4102 22.8145 28.502 21.916C27.5938 21.0176 27.1689 19.9287 27.2275 18.6494C27.2764 16.9307 27.9941 15.6123 29.3809 14.6943C30.7676 13.7666 32.6621 13.3027 35.0645 13.3027L36.6758 13.332L36.8516 12.4385L36.9102 11.6621C36.8711 10.7734 36.4268 10.3145 35.5771 10.2852C34.5225 10.2656 33.873 10.8467 33.6289 12.0283L28.7949 12.043C28.8438 10.9785 29.1904 10.0557 29.835 9.27441C30.4795 8.4834 31.3535 7.87793 32.457 7.45801C33.5703 7.02832 34.752 6.82812 36.002 6.85742C37.2031 6.88672 38.2529 7.14062 39.1514 7.61914C40.0596 8.08789 40.7383 8.74707 41.1875 9.59668C41.6367 10.4365 41.8076 11.4082 41.7002 12.5117L40.5137 19.9678L40.4404 20.876C40.4014 21.5986 40.4941 22.2139 40.7188 22.7217L40.7041 23H36.0166ZM33.2627 19.8066C34.249 19.8457 35.1133 19.4111 35.8555 18.5029L36.3389 15.9541L35.0938 15.9395C34.3223 15.959 33.6582 16.1885 33.1016 16.6279C32.5449 17.0576 32.2178 17.6484 32.1201 18.4004C32.0713 18.8008 32.1445 19.1328 32.3398 19.3965C32.5449 19.6504 32.8525 19.7871 33.2627 19.8066ZM49.5957 17.0674L53.5654 7.15039H58.7656L51.2656 23H46.3584L43.8242 7.15039H48.7754L49.5957 17.0674ZM65.2842 23.293C63.8682 23.2832 62.6035 22.9512 61.4902 22.2969C60.3867 21.6328 59.5518 20.7148 58.9854 19.543C58.4189 18.3613 58.1943 17.0625 58.3115 15.6465L58.3555 15.2363C58.6191 12.6289 59.5225 10.5684 61.0654 9.05469C62.6182 7.53125 64.5176 6.79883 66.7637 6.85742C68.1211 6.87695 69.2832 7.22363 70.25 7.89746C71.2168 8.56152 71.9248 9.48438 72.374 10.666C72.8232 11.8379 72.9697 13.1562 72.8135 14.6211L72.5352 16.6279H63.1016C63.1211 17.458 63.3555 18.1318 63.8047 18.6494C64.2539 19.167 64.9082 19.4404 65.7676 19.4697C67.1641 19.5088 68.4189 18.9717 69.5322 17.8584L71.5537 20.5391C70.958 21.3887 70.123 22.0576 69.0488 22.5459C67.9844 23.0244 66.8174 23.2734 65.5479 23.293H65.2842ZM66.4561 10.6514C65.7725 10.6318 65.1768 10.8467 64.6689 11.2959C64.1709 11.7451 63.7363 12.4971 63.3652 13.5518H68.1846L68.2725 13.127C68.3311 12.7852 68.3408 12.4629 68.3018 12.1602C68.1357 11.1836 67.5205 10.6807 66.4561 10.6514ZM78.4824 23H73.6484L77.5449 0.5H82.3789L78.4824 23ZM107.574 5.6416H101.363L98.3604 23H93.3359L96.3535 5.6416H90.2451L90.9482 1.67188H108.263L107.574 5.6416ZM113.038 23C112.901 22.6191 112.833 22.1406 112.833 21.5645C111.749 22.7559 110.455 23.332 108.951 23.293C107.574 23.2734 106.432 22.8145 105.523 21.916C104.615 21.0176 104.19 19.9287 104.249 18.6494C104.298 16.9307 105.016 15.6123 106.402 14.6943C107.789 13.7666 109.684 13.3027 112.086 13.3027L113.697 13.332L113.873 12.4385L113.932 11.6621C113.893 10.7734 113.448 10.3145 112.599 10.2852C111.544 10.2656 110.895 10.8467 110.65 12.0283L105.816 12.043C105.865 10.9785 106.212 10.0557 106.856 9.27441C107.501 8.4834 108.375 7.87793 109.479 7.45801C110.592 7.02832 111.773 6.82812 113.023 6.85742C114.225 6.88672 115.274 7.14062 116.173 7.61914C117.081 8.08789 117.76 8.74707 118.209 9.59668C118.658 10.4365 118.829 11.4082 118.722 12.5117L117.535 19.9678L117.462 20.876C117.423 21.5986 117.516 22.2139 117.74 22.7217L117.726 23H113.038ZM110.284 19.8066C111.271 19.8457 112.135 19.4111 112.877 18.5029L113.36 15.9541L112.115 15.9395C111.344 15.959 110.68 16.1885 110.123 16.6279C109.566 17.0576 109.239 17.6484 109.142 18.4004C109.093 18.8008 109.166 19.1328 109.361 19.3965C109.566 19.6504 109.874 19.7871 110.284 19.8066ZM124.771 23H119.938L122.691 7.15039H127.525L124.771 23ZM123.116 3.15137C123.097 2.43848 123.346 1.84277 123.863 1.36426C124.391 0.885742 125.025 0.646484 125.768 0.646484C126.52 0.646484 127.145 0.861328 127.643 1.29102C128.15 1.7207 128.414 2.28223 128.434 2.97559C128.453 3.69824 128.204 4.29883 127.687 4.77734C127.169 5.24609 126.534 5.48047 125.782 5.48047C125.05 5.48047 124.425 5.27051 123.907 4.85059C123.399 4.4209 123.136 3.85449 123.116 3.15137ZM142.188 16.4814L145.367 7.15039H150.084L143.712 23H139.654L138.746 13.6543L134.571 23H130.484L129.605 7.15039H134.132L133.985 16.584L138.043 7.15039H141.397L142.188 16.4814ZM158.038 23C157.901 22.6191 157.833 22.1406 157.833 21.5645C156.749 22.7559 155.455 23.332 153.951 23.293C152.574 23.2734 151.432 22.8145 150.523 21.916C149.615 21.0176 149.19 19.9287 149.249 18.6494C149.298 16.9307 150.016 15.6123 151.402 14.6943C152.789 13.7666 154.684 13.3027 157.086 13.3027L158.697 13.332L158.873 12.4385L158.932 11.6621C158.893 10.7734 158.448 10.3145 157.599 10.2852C156.544 10.2656 155.895 10.8467 155.65 12.0283L150.816 12.043C150.865 10.9785 151.212 10.0557 151.856 9.27441C152.501 8.4834 153.375 7.87793 154.479 7.45801C155.592 7.02832 156.773 6.82812 158.023 6.85742C159.225 6.88672 160.274 7.14062 161.173 7.61914C162.081 8.08789 162.76 8.74707 163.209 9.59668C163.658 10.4365 163.829 11.4082 163.722 12.5117L162.535 19.9678L162.462 20.876C162.423 21.5986 162.516 22.2139 162.74 22.7217L162.726 23H158.038ZM155.284 19.8066C156.271 19.8457 157.135 19.4111 157.877 18.5029L158.36 15.9541L157.115 15.9395C156.344 15.959 155.68 16.1885 155.123 16.6279C154.566 17.0576 154.239 17.6484 154.142 18.4004C154.093 18.8008 154.166 19.1328 154.361 19.3965C154.566 19.6504 154.874 19.7871 155.284 19.8066ZM171.837 7.13574L171.5 9.04004C172.77 7.53613 174.298 6.80371 176.085 6.84277C177.55 6.87207 178.639 7.41895 179.352 8.4834C180.074 9.53809 180.338 11.0518 180.143 13.0244L178.473 23H173.639L175.323 12.9951C175.362 12.6533 175.372 12.3408 175.353 12.0576C175.284 11.1299 174.737 10.666 173.712 10.666C172.862 10.6465 172.086 11.0225 171.383 11.7939L169.405 23H164.586L167.34 7.15039L171.837 7.13574Z" fill="#08A6BB"/>
</svg>
